<svg width="14" height="15" viewBox="0 0 14 15" fill="none" xmlns="http://www.w3.org/2000/svg">
<path fill-rule="evenodd" clip-rule="evenodd" d="M11.125 2.4375H10.5156V1.96875C10.5156 1.70986 10.3058 1.5 10.0469 1.5C9.78798 1.5 9.57812 1.70986 9.57812 1.96875V2.4375H7.44531V1.96875C7.44531 1.70986 7.23545 1.5 6.97656 1.5C6.71767 1.5 6.50781 1.70986 6.50781 1.96875V2.4375H4.39844V1.96875C4.39844 1.70986 4.18858 1.5 3.92969 1.5C3.6708 1.5 3.46094 1.70986 3.46094 1.96875V2.4375H2.875C1.84113 2.4375 1 3.27863 1 4.3125V11.625C1 12.6589 1.84113 13.5 2.875 13.5H6.46094C6.71983 13.5 6.92969 13.2901 6.92969 13.0312C6.92969 12.7724 6.71983 12.5625 6.46094 12.5625H2.875C2.35806 12.5625 1.9375 12.1419 1.9375 11.625V4.3125C1.9375 3.79556 2.35806 3.375 2.875 3.375H3.46094V3.84375C3.46094 4.10264 3.6708 4.3125 3.92969 4.3125C4.18858 4.3125 4.39844 4.10264 4.39844 3.84375V3.375H6.50781V3.84375C6.50781 4.10264 6.71767 4.3125 6.97656 4.3125C7.23545 4.3125 7.44531 4.10264 7.44531 3.84375V3.375H9.57812V3.84375C9.57812 4.10264 9.78798 4.3125 10.0469 4.3125C10.3058 4.3125 10.5156 4.10264 10.5156 3.84375V3.375H11.125C11.6419 3.375 12.0625 3.79556 12.0625 4.3125V6.98438C12.0625 7.24327 12.2724 7.45312 12.5312 7.45312C12.7901 7.45312 13 7.24327 13 6.98438V4.3125C13 3.27863 12.1589 2.4375 11.125 2.4375ZM10.5156 6.42188C10.5156 6.68076 10.3058 6.89062 10.0469 6.89062C9.78799 6.89062 9.57812 6.68076 9.57812 6.42188C9.57812 6.16299 9.78799 5.95312 10.0469 5.95312C10.3058 5.95312 10.5156 6.16299 10.5156 6.42188ZM10.1641 7.82812C8.60031 7.82812 7.32812 9.10031 7.32812 10.6641C7.32812 12.2278 8.60031 13.5 10.1641 13.5C11.7278 13.5 13 12.2278 13 10.6641C13 9.10031 11.7278 7.82812 10.1641 7.82812ZM10.1641 12.5625C9.11727 12.5625 8.26562 11.7109 8.26562 10.6641C8.26562 9.61725 9.11727 8.76562 10.1641 8.76562C11.2109 8.76562 12.0625 9.61725 12.0625 10.6641C12.0625 11.7109 11.2109 12.5625 10.1641 12.5625ZM10.8438 10.1953H10.6328V9.70312C10.6328 9.44423 10.423 9.23438 10.1641 9.23438C9.90517 9.23438 9.69531 9.44423 9.69531 9.70312V10.6641C9.69531 10.923 9.90517 11.1328 10.1641 11.1328H10.8438C11.1026 11.1328 11.3125 10.923 11.3125 10.6641C11.3125 10.4052 11.1026 10.1953 10.8438 10.1953ZM8.00781 6.89062C8.2667 6.89062 8.47656 6.68076 8.47656 6.42188C8.47656 6.16299 8.2667 5.95312 8.00781 5.95312C7.74893 5.95312 7.53906 6.16299 7.53906 6.42188C7.53906 6.68076 7.74893 6.89062 8.00781 6.89062ZM6.4375 8.46094C6.4375 8.71982 6.22763 8.92969 5.96875 8.92969C5.70987 8.92969 5.5 8.71982 5.5 8.46094C5.5 8.20205 5.70987 7.99219 5.96875 7.99219C6.22763 7.99219 6.4375 8.20205 6.4375 8.46094ZM3.92969 6.89062C4.18857 6.89062 4.39844 6.68076 4.39844 6.42188C4.39844 6.16299 4.18857 5.95312 3.92969 5.95312C3.6708 5.95312 3.46094 6.16299 3.46094 6.42188C3.46094 6.68076 3.6708 6.89062 3.92969 6.89062ZM4.39844 8.46094C4.39844 8.71982 4.18857 8.92969 3.92969 8.92969C3.6708 8.92969 3.46094 8.71982 3.46094 8.46094C3.46094 8.20205 3.6708 7.99219 3.92969 7.99219C4.18857 7.99219 4.39844 8.20205 4.39844 8.46094ZM3.92969 10.9688C4.18857 10.9688 4.39844 10.7589 4.39844 10.5C4.39844 10.2411 4.18857 10.0312 3.92969 10.0312C3.6708 10.0312 3.46094 10.2411 3.46094 10.5C3.46094 10.7589 3.6708 10.9688 3.92969 10.9688ZM6.4375 10.5C6.4375 10.7589 6.22763 10.9688 5.96875 10.9688C5.70987 10.9688 5.5 10.7589 5.5 10.5C5.5 10.2411 5.70987 10.0312 5.96875 10.0312C6.22763 10.0312 6.4375 10.2411 6.4375 10.5ZM5.96875 6.89062C6.22763 6.89062 6.4375 6.68076 6.4375 6.42188C6.4375 6.16299 6.22763 5.95312 5.96875 5.95312C5.70987 5.95312 5.5 6.16299 5.5 6.42188C5.5 6.68076 5.70987 6.89062 5.96875 6.89062Z" fill="#34A1C7"/>
</svg>
