<svg width="16" height="16" viewBox="0 0 16 16" fill="none" xmlns="http://www.w3.org/2000/svg">
<circle cx="8" cy="8" r="8" fill="#C1C6C5"/>
<path d="M10.9158 5.53269L10.5014 5.12316C10.3892 5.01101 10.2039 5.01101 10.0869 5.12316L8.01947 7.19055L5.91307 5.08415C5.80088 4.97195 5.61559 4.97195 5.49861 5.08415L5.08415 5.49861C4.97195 5.61076 4.97195 5.79605 5.08415 5.91307L7.18572 8.01465L5.12316 10.087C5.01101 10.1991 5.01101 10.3844 5.12316 10.5014L5.53762 10.9159C5.64977 11.028 5.83506 11.028 5.95208 10.9159L8.01947 8.84845L10.0869 10.9159C10.1991 11.028 10.3844 11.028 10.5014 10.9159L10.9158 10.5014C11.028 10.3893 11.028 10.204 10.9158 10.087L8.84352 8.01952L10.911 5.95213C11.028 5.83501 11.028 5.64972 10.9158 5.53269Z" fill="white"/>
</svg>
