<svg width="25" height="26" viewBox="0 0 25 26" fill="none" xmlns="http://www.w3.org/2000/svg">
<rect y="0.5" width="25" height="25" rx="8" fill="#EDEEEE"/>
<path d="M18.5748 7.85979L17.7113 7.00658C17.4776 6.77293 17.0916 6.77293 16.8478 7.00658L12.5406 11.3137L8.15225 6.92531C7.91851 6.69156 7.53248 6.69156 7.28878 6.92531L6.42531 7.78878C6.19156 8.02243 6.19156 8.40845 6.42531 8.65225L10.8036 13.0306L6.50658 17.3479C6.27293 17.5816 6.27293 17.9676 6.50658 18.2114L7.37005 19.0749C7.6037 19.3085 7.98972 19.3085 8.23352 19.0749L12.5406 14.7677L16.8478 19.0749C17.0815 19.3085 17.4675 19.3085 17.7113 19.0749L18.5748 18.2114C18.8084 17.9777 18.8084 17.5917 18.5748 17.3479L14.2574 13.0407L18.5646 8.73362C18.8084 8.48962 18.8084 8.10359 18.5748 7.85979Z" fill="#05161C"/>
</svg>
