<svg width="19" height="18" viewBox="0 0 19 18" fill="none" xmlns="http://www.w3.org/2000/svg">
<path fill-rule="evenodd" clip-rule="evenodd" d="M3.86842 17.4674C4.03555 17.5882 4.23138 17.6497 4.42858 17.6497C4.59887 17.6497 4.76765 17.6039 4.91912 17.5139L9.39962 14.8349L13.8801 17.5124C14.2071 17.7089 14.6211 17.6916 14.9316 17.4667C15.2428 17.2417 15.3884 16.8539 15.3035 16.4789L14.1456 11.3782L18.0726 7.93495C18.3613 7.68295 18.4709 7.28319 18.3524 6.91872C18.2339 6.55424 17.9114 6.29538 17.5288 6.26091L12.3337 5.78918L10.2794 0.980881C10.1279 0.628494 9.78291 0.400391 9.39962 0.400391C9.01633 0.400391 8.67136 0.628494 8.51989 0.981705L6.46558 5.78918L1.2696 6.26091C0.887825 6.2962 0.565377 6.55424 0.446862 6.91872C0.328346 7.28387 0.438622 7.68295 0.727288 7.93495L4.65435 11.3789L3.49639 16.4797C3.41166 16.8539 3.55709 17.2417 3.86842 17.4674ZM9.89016 13.8172C9.73855 13.7272 9.56991 13.6815 9.39962 13.6815C9.22933 13.6815 9.06055 13.7272 8.90908 13.8172L4.68058 16.3454L5.77262 11.5312C5.85131 11.1877 5.73513 10.8307 5.46954 10.5982L1.76165 7.34622L6.66814 6.90073C7.02053 6.86845 7.3243 6.64639 7.46081 6.32312L9.39962 1.78563L11.3361 6.32243C11.4741 6.6479 11.7779 6.86996 12.1311 6.90224L17.0369 7.34773L13.3289 10.5997C13.0641 10.8315 12.9478 11.1892 13.0258 11.5319L14.1187 16.3462L9.89016 13.8172Z" fill="#C1C6C5"/>
<path d="M3.86842 17.4674L3.75105 17.6293L3.75123 17.6294L3.86842 17.4674ZM4.91912 17.5139L5.02124 17.6859L5.02176 17.6856L4.91912 17.5139ZM9.39962 14.8349L9.50222 14.6632L9.39959 14.6019L9.29698 14.6633L9.39962 14.8349ZM13.8801 17.5124L13.9831 17.341L13.9827 17.3407L13.8801 17.5124ZM14.9316 17.4667L14.8145 17.3046L14.8143 17.3047L14.9316 17.4667ZM15.3035 16.4789L15.4986 16.4347L15.4986 16.4346L15.3035 16.4789ZM14.1456 11.3782L14.0137 11.2278L13.9242 11.3063L13.9505 11.4225L14.1456 11.3782ZM18.0726 7.93495L17.9411 7.78429L17.9408 7.78457L18.0726 7.93495ZM17.5288 6.26091L17.5107 6.46009L17.5109 6.4601L17.5288 6.26091ZM12.3337 5.78918L12.1497 5.86776L12.1967 5.97757L12.3156 5.98837L12.3337 5.78918ZM10.2794 0.980881L10.4633 0.902303L10.4631 0.901898L10.2794 0.980881ZM8.51989 0.981705L8.33608 0.902878L8.33598 0.903116L8.51989 0.981705ZM6.46558 5.78918L6.48367 5.98837L6.60258 5.97757L6.6495 5.86777L6.46558 5.78918ZM1.2696 6.26091L1.25152 6.06173L1.25119 6.06176L1.2696 6.26091ZM0.446862 6.91872L0.256664 6.85687L0.25663 6.85698L0.446862 6.91872ZM0.727288 7.93495L0.859157 7.78458L0.858816 7.78429L0.727288 7.93495ZM4.65435 11.3789L4.84939 11.4232L4.87575 11.307L4.78622 11.2285L4.65435 11.3789ZM3.49639 16.4797L3.30135 16.4354L3.30133 16.4355L3.49639 16.4797ZM9.89016 13.8172L9.99282 13.6455L9.99221 13.6452L9.89016 13.8172ZM8.90908 13.8172L8.80696 13.6452L8.80645 13.6455L8.90908 13.8172ZM4.68058 16.3454L4.48554 16.3012L4.38217 16.7568L4.78321 16.5171L4.68058 16.3454ZM5.77262 11.5312L5.57767 11.4865L5.57758 11.4869L5.77262 11.5312ZM5.46954 10.5982L5.33766 10.7485L5.3378 10.7487L5.46954 10.5982ZM1.76165 7.34622L1.74357 7.14704L1.27929 7.1892L1.62978 7.49659L1.76165 7.34622ZM6.66814 6.90073L6.68623 7.09991L6.68638 7.09989L6.66814 6.90073ZM7.46081 6.32312L7.27689 6.24453L7.27656 6.24532L7.46081 6.32312ZM9.39962 1.78563L9.58356 1.70711L9.39972 1.27639L9.21571 1.70704L9.39962 1.78563ZM11.3361 6.32243L11.5202 6.24435L11.52 6.24392L11.3361 6.32243ZM12.1311 6.90224L12.1129 7.10141L12.113 7.10142L12.1311 6.90224ZM17.0369 7.34773L17.1688 7.4981L17.5193 7.19071L17.055 7.14855L17.0369 7.34773ZM13.3289 10.5997L13.4606 10.7502L13.4608 10.7501L13.3289 10.5997ZM13.0258 11.5319L13.2208 11.4876L13.2208 11.4875L13.0258 11.5319ZM14.1187 16.3462L14.016 16.5179L14.4172 16.7578L14.3137 16.3019L14.1187 16.3462ZM4.42858 17.4497C4.27319 17.4497 4.11842 17.4013 3.98561 17.3053L3.75123 17.6294C3.95267 17.7751 4.18956 17.8498 4.42858 17.8498V17.4497ZM4.817 17.342C4.6962 17.4137 4.56266 17.4497 4.42858 17.4497V17.8498C4.63507 17.8498 4.83909 17.7941 5.02124 17.6859L4.817 17.342ZM9.29698 14.6633L4.81648 17.3423L5.02176 17.6856L9.50226 15.0066L9.29698 14.6633ZM13.9827 17.3407L9.50222 14.6632L9.29702 15.0066L13.7775 17.6841L13.9827 17.3407ZM14.8143 17.3047C14.5687 17.4827 14.2414 17.4962 13.9831 17.341L13.7771 17.6838C14.1728 17.9217 14.6736 17.9006 15.049 17.6287L14.8143 17.3047ZM15.1085 16.523C15.1758 16.8204 15.0604 17.1269 14.8145 17.3046L15.0488 17.6288C15.4253 17.3566 15.6011 16.8875 15.4986 16.4347L15.1085 16.523ZM13.9505 11.4225L15.1085 16.5232L15.4986 16.4346L14.3406 11.3339L13.9505 11.4225ZM17.9408 7.78457L14.0137 11.2278L14.2774 11.5286L18.2045 8.08533L17.9408 7.78457ZM18.1622 6.98056C18.256 7.26916 18.1692 7.5852 17.9411 7.78429L18.2042 8.08562C18.5534 7.78071 18.6858 7.29722 18.5426 6.85687L18.1622 6.98056ZM17.5109 6.4601C17.8132 6.48735 18.0683 6.69175 18.1622 6.98056L18.5426 6.85687C18.3995 6.41674 18.0096 6.10341 17.5468 6.06172L17.5109 6.4601ZM12.3156 5.98837L17.5107 6.46009L17.5469 6.06173L12.3517 5.59L12.3156 5.98837ZM10.0954 1.05946L12.1497 5.86776L12.5176 5.71061L10.4633 0.902304L10.0954 1.05946ZM9.39962 0.600391C9.70262 0.600391 9.97555 0.780576 10.0956 1.05986L10.4631 0.901898C10.2802 0.476412 9.86319 0.200391 9.39962 0.200391V0.600391ZM8.7037 1.06053C8.8238 0.780491 9.0967 0.600391 9.39962 0.600391V0.200391C8.93597 0.200391 8.51893 0.476498 8.33608 0.902878L8.7037 1.06053ZM6.6495 5.86777L8.7038 1.06029L8.33598 0.903116L6.28167 5.7106L6.6495 5.86777ZM1.28768 6.46009L6.48367 5.98837L6.4475 5.59L1.25152 6.06173L1.28768 6.46009ZM0.637059 6.98056C0.730899 6.69197 0.98587 6.48799 1.28801 6.46006L1.25119 6.06176C0.78978 6.10441 0.399854 6.41652 0.256664 6.85687L0.637059 6.98056ZM0.858816 7.78429C0.630549 7.58501 0.54327 7.26954 0.637093 6.98046L0.25663 6.85698C0.113423 7.29821 0.246695 7.78089 0.595759 8.08562L0.858816 7.78429ZM4.78622 11.2285L0.859157 7.78458L0.595418 8.08532L4.52248 11.5293L4.78622 11.2285ZM3.69143 16.524L4.84939 11.4232L4.45931 11.3346L3.30135 16.4354L3.69143 16.524ZM3.98578 17.3054C3.73944 17.1269 3.62435 16.8202 3.69145 16.5239L3.30133 16.4355C3.19897 16.8876 3.37474 17.3566 3.75105 17.6293L3.98578 17.3054ZM9.39962 13.8815C9.53377 13.8815 9.66719 13.9174 9.78811 13.9892L9.99221 13.6452C9.80991 13.537 9.60605 13.4815 9.39962 13.4815V13.8815ZM9.0112 13.9891C9.13191 13.9175 9.26543 13.8815 9.39962 13.8815V13.4815C9.19323 13.4815 8.9892 13.537 8.80696 13.6452L9.0112 13.9891ZM4.78321 16.5171L9.01171 13.9888L8.80645 13.6455L4.57795 16.1737L4.78321 16.5171ZM5.57758 11.4869L4.48554 16.3012L4.87563 16.3896L5.96767 11.5754L5.57758 11.4869ZM5.3378 10.7487C5.54825 10.9329 5.63986 11.2151 5.57767 11.4865L5.96757 11.5759C6.06276 11.1604 5.92201 10.7285 5.60127 10.4477L5.3378 10.7487ZM1.62978 7.49659L5.33766 10.7485L5.60141 10.4478L1.89352 7.19586L1.62978 7.49659ZM6.65006 6.70155L1.74357 7.14704L1.77974 7.5454L6.68623 7.09991L6.65006 6.70155ZM7.27656 6.24532C7.1689 6.50028 6.92916 6.67599 6.6499 6.70156L6.68638 7.09989C7.1119 7.06092 7.47971 6.79251 7.64506 6.40092L7.27656 6.24532ZM9.21571 1.70704L7.27689 6.24454L7.64472 6.4017L9.58353 1.86421L9.21571 1.70704ZM11.52 6.24392L9.58356 1.70711L9.21568 1.86414L11.1522 6.40095L11.52 6.24392ZM12.1493 6.70307C11.8695 6.6775 11.6295 6.50197 11.5202 6.24435L11.152 6.40051C11.3188 6.79383 11.6863 7.06243 12.1129 7.10141L12.1493 6.70307ZM17.055 7.14855L12.1492 6.70306L12.113 7.10142L17.0188 7.54691L17.055 7.14855ZM13.4608 10.7501L17.1688 7.4981L16.905 7.19737L13.197 10.4493L13.4608 10.7501ZM13.2208 11.4875C13.1591 11.2166 13.251 10.9337 13.4606 10.7502L13.1971 10.4492C12.8772 10.7293 12.7364 11.1619 12.8308 11.5763L13.2208 11.4875ZM14.3137 16.3019L13.2208 11.4876L12.8308 11.5761L13.9236 16.3905L14.3137 16.3019ZM9.7875 13.9888L14.016 16.5179L14.2213 16.1746L9.99282 13.6455L9.7875 13.9888Z" fill="white"/>
</svg>
