<svg width="19" height="18" viewBox="0 0 19 18" fill="none" xmlns="http://www.w3.org/2000/svg">
<path d="M4.42864 17.6497C4.23144 17.6497 4.03561 17.5882 3.86848 17.4674C3.55715 17.2417 3.41172 16.8539 3.49645 16.4797L4.65441 11.3789L0.727349 7.93495C0.438683 7.68295 0.328408 7.28387 0.446923 6.91872C0.565438 6.55424 0.887886 6.2962 1.26966 6.26091L6.46564 5.78918L8.51995 0.981705C8.67142 0.628494 9.0164 0.400391 9.39968 0.400391C9.78297 0.400391 10.1279 0.628494 10.2794 0.980881L12.3337 5.78918L17.5289 6.26091C17.9115 6.29538 18.2339 6.55424 18.3524 6.91872C18.471 7.28319 18.3614 7.68295 18.0727 7.93495L14.1456 11.3782L15.3036 16.4789C15.3885 16.8539 15.2429 17.2417 14.9317 17.4667C14.6212 17.6916 14.2072 17.7089 13.8802 17.5124L9.39968 14.8349L4.91918 17.5139C4.76771 17.6039 4.59893 17.6497 4.42864 17.6497Z" fill="#34A1C7" stroke="white" stroke-width="0.4"/>
</svg>
