<svg width="16" height="14" viewBox="0 0 16 14" fill="none" xmlns="http://www.w3.org/2000/svg">
<path d="M14.2733 1.31606C13.4975 0.478447 12.4103 0.00185441 11.2712 8.76199e-05C10.1313 0.00141271 9.04299 0.477753 8.26593 1.31553L8.0011 1.59661L7.73627 1.31553C6.19438 -0.351283 3.59911 -0.447006 1.93965 1.10168C1.86611 1.17034 1.79509 1.24164 1.72674 1.31553C0.0910866 3.08756 0.0910866 5.82615 1.72674 7.59818L7.61191 13.8318C7.81552 14.0477 8.15483 14.057 8.36978 13.8525C8.37681 13.8458 8.38366 13.8389 8.39032 13.8318L14.2734 7.59818C15.9089 5.82634 15.9089 3.0879 14.2733 1.31606Z" fill="#C1C6C5"/>
</svg>
