<svg width="19" height="18" viewBox="0 0 19 18" fill="none" xmlns="http://www.w3.org/2000/svg">
<path fill-rule="evenodd" clip-rule="evenodd" d="M12.0249 17.9996H15.0249C15.6452 17.9996 16.1499 17.4949 16.1499 16.8746V9.74963H17.6499C18.0632 9.74963 18.3999 9.41288 18.3999 8.99963C18.3999 8.80088 18.3189 8.60588 18.1749 8.46187L9.6624 0.106875C9.5169 -0.035625 9.2829 -0.035625 9.1374 0.106875L0.621902 8.46488C0.480902 8.60588 0.399902 8.80088 0.399902 8.99963C0.399902 9.41288 0.736652 9.74963 1.1499 9.74963H2.6499V16.8746C2.6499 17.4949 3.15465 17.9996 3.7749 17.9996H6.7749C6.9819 17.9996 7.1499 17.8316 7.1499 17.6246V12.3746C7.1499 12.1676 7.3179 11.9996 7.5249 11.9996H11.2749C11.4819 11.9996 11.6499 12.1676 11.6499 12.3746V17.6246C11.6499 17.8316 11.8179 17.9996 12.0249 17.9996ZM15.0249 17.2496H12.3999V12.3746C12.3999 11.7544 11.8952 11.2496 11.2749 11.2496H7.5249C6.90465 11.2496 6.3999 11.7544 6.3999 12.3746V17.2496H3.7749C3.5679 17.2496 3.3999 17.0816 3.3999 16.8746V9.37463C3.3999 9.16762 3.2319 8.99963 3.0249 8.99963L1.1499 8.99738L9.3999 0.900375L17.6499 8.99963H15.7749C15.5679 8.99963 15.3999 9.16762 15.3999 9.37463V16.8746C15.3999 17.0816 15.2319 17.2496 15.0249 17.2496Z" fill="#C1C6C5"/>
</svg>
