<svg width="19" height="18" viewBox="0 0 19 18" fill="none" xmlns="http://www.w3.org/2000/svg">
<path d="M18.1142 8.13638L9.78915 0.156375C9.57165 -0.052125 9.22815 -0.052125 9.01065 0.156375L0.677402 8.14462C0.501152 8.32088 0.399902 8.56388 0.399902 8.81213C0.399902 9.32888 0.820652 9.74963 1.3374 9.74963H2.6499V16.8746C2.6499 17.4956 3.1539 17.9996 3.7749 17.9996H6.9624C7.2729 17.9996 7.5249 17.7476 7.5249 17.4371V12.5621C7.5249 12.4594 7.6089 12.3746 7.7124 12.3746H11.0874C11.1902 12.3746 11.2749 12.4594 11.2749 12.5621V17.4371C11.2749 17.7476 11.5269 17.9996 11.8374 17.9996H15.0249C15.6459 17.9996 16.1499 17.4956 16.1499 16.8746V9.74963H17.4624C17.9792 9.74963 18.3999 9.32888 18.3999 8.81213C18.3999 8.56388 18.2987 8.32088 18.1142 8.13638Z" fill="#34A1C7"/>
</svg>
