<svg width="24" height="24" viewBox="0 0 24 24" fill="none" xmlns="http://www.w3.org/2000/svg">
<circle cx="12" cy="12" r="12" fill="#EDEEEE"/>
<path fill-rule="evenodd" clip-rule="evenodd" d="M14.5046 7.7864C14.8458 7.47008 15.0155 7.08538 15.0155 6.63492C15.0155 6.18548 14.846 5.80002 14.5046 5.47969C14.1643 5.16023 13.7541 5 13.2746 5C12.7935 5 12.3817 5.15985 12.0382 5.47969C11.6946 5.80002 11.5225 6.18535 11.5225 6.63492C11.5225 7.08538 11.6946 7.46995 12.0382 7.7864C12.3823 8.10385 12.7934 8.2627 13.2746 8.2627C13.7543 8.2627 14.1643 8.10385 14.5046 7.7864ZM14.6347 18.2888L14.8303 17.4892C14.7291 17.5367 14.5658 17.5911 14.342 17.6529C14.1175 17.7148 13.9155 17.7463 13.738 17.7463C13.3598 17.7463 13.0935 17.6843 12.9389 17.5597C12.7855 17.4351 12.7089 17.2007 12.7089 16.8574C12.7089 16.7214 12.732 16.5186 12.7803 16.2533C12.8271 15.9861 12.881 15.7487 12.9408 15.5411L13.6711 12.9557C13.7426 12.7184 13.7917 12.4575 13.818 12.1728C13.845 11.8888 13.8575 11.69 13.8575 11.5772C13.8575 11.032 13.6664 10.5896 13.2841 10.2483C12.9018 9.90728 12.3574 9.73676 11.6518 9.73676C11.2592 9.73676 10.8441 9.80653 10.4049 9.94593C9.96558 10.085 9.50634 10.2525 9.0259 10.4481L8.82979 11.2483C8.97295 11.1954 9.14347 11.1384 9.34298 11.0795C9.5416 11.0207 9.73646 10.9904 9.92605 10.9904C10.3131 10.9904 10.5739 11.0564 10.7105 11.1864C10.8472 11.3167 10.9158 11.5486 10.9158 11.8801C10.9158 12.0634 10.8941 12.2671 10.849 12.4884C10.8046 12.7111 10.7492 12.9466 10.6839 13.1952L9.95052 15.791C9.88527 16.0638 9.83759 16.3078 9.80761 16.5245C9.77787 16.741 9.76356 16.9534 9.76356 17.1599C9.76356 17.6934 9.96068 18.1332 10.3548 18.4803C10.7489 18.826 11.3015 19 12.0119 19C12.4746 19 12.8806 18.9395 13.23 18.8179C13.5791 18.6967 14.0479 18.5204 14.6347 18.2888Z" fill="#848E8C"/>
</svg>
