<svg width="7" height="9" viewBox="0 0 7 9" fill="none" xmlns="http://www.w3.org/2000/svg">
<path fill-rule="evenodd" clip-rule="evenodd" d="M0.424805 3.49109C0.424805 1.77269 1.81287 0.375 3.51855 0.375C5.22424 0.375 6.6123 1.77269 6.6123 3.49109C6.6123 5.93275 3.80937 8.45381 3.69009 8.56003C3.64093 8.60334 3.57974 8.625 3.51855 8.625C3.45737 8.625 3.39618 8.60334 3.34702 8.55969C3.22774 8.45381 0.424805 5.93275 0.424805 3.49109ZM1.79983 3.46875C1.79983 4.41647 2.57086 5.1875 3.51858 5.1875C4.46629 5.1875 5.23733 4.41647 5.23733 3.46875C5.23733 2.52103 4.46629 1.75 3.51858 1.75C2.57086 1.75 1.79983 2.52103 1.79983 3.46875Z" fill="#FF8E25"/>
</svg>
