<svg width="15" height="20" viewBox="0 0 15 20" fill="none" xmlns="http://www.w3.org/2000/svg">
<path fill-rule="evenodd" clip-rule="evenodd" d="M13.3642 14.1673C13.763 15.0112 14.1612 15.2902 14.2141 15.3245C14.437 15.4277 14.5469 15.6661 14.4957 15.9076C14.4439 16.1516 14.2159 16.3198 13.9669 16.3198H10.1016C10.08 17.8013 8.87083 19 7.38671 19C5.90259 19 4.69342 17.8013 4.67184 16.3198H0.806512C0.5575 16.3198 0.329476 16.1516 0.277691 15.9076C0.226398 15.6661 0.336332 15.4277 0.559293 15.3245C0.612238 15.2901 1.01045 15.0112 1.40916 14.1673C2.14143 12.6175 2.29513 10.4344 2.29513 8.87588C2.29513 6.80743 3.53098 5.02275 5.30187 4.22351V3.00517C5.30187 1.89951 6.1999 1 7.30374 1H7.46964C8.57348 1 9.47151 1.89951 9.47151 3.00517V4.22358C11.2365 5.02026 12.4699 6.79586 12.4779 8.85563C12.4781 8.86238 12.4782 8.86909 12.4782 8.87588C12.4782 10.4344 12.6319 12.6175 13.3642 14.1673ZM7.30377 2.05641C6.78149 2.05641 6.35659 2.48201 6.35659 3.00517H6.35663V3.88105C6.68935 3.81232 7.03381 3.77615 7.38657 3.77615C7.73943 3.77615 8.084 3.81236 8.41685 3.88116V3.00517C8.41685 2.48201 7.99196 2.05641 7.46968 2.05641H7.30377ZM7.38671 17.9436C6.48414 17.9436 5.74793 17.2188 5.72652 16.3198H9.04686C9.02548 17.2187 8.28927 17.9436 7.38671 17.9436ZM2.00833 15.2633H9.51014H12.7651C12.6739 15.1211 12.581 14.9602 12.4887 14.7782C11.7839 13.3885 11.4256 11.4098 11.4236 8.89708C11.4233 8.89061 11.4232 8.88414 11.4232 8.87764C11.4232 6.64638 9.61234 4.83256 7.38653 4.83256C5.16072 4.83256 3.34986 6.64637 3.34986 8.87588C3.34986 11.3987 2.99147 13.3845 2.28469 14.7782C2.19241 14.9602 2.09956 15.1211 2.00833 15.2633Z" fill="#C1C6C5"/>
<path d="M14.2141 15.3245L14.1188 15.4713L14.1293 15.4781L14.1406 15.4833L14.2141 15.3245ZM13.3642 14.1673L13.5224 14.0925L13.5224 14.0925L13.3642 14.1673ZM14.4957 15.9076L14.6669 15.944L14.6669 15.9439L14.4957 15.9076ZM10.1016 16.3198V16.1448H9.92911L9.9266 16.3172L10.1016 16.3198ZM4.67184 16.3198L4.84682 16.3172L4.8443 16.1448H4.67184V16.3198ZM0.277691 15.9076L0.448877 15.8713L0.448875 15.8713L0.277691 15.9076ZM0.559293 15.3245L0.632792 15.4833L0.644128 15.4781L0.654604 15.4713L0.559293 15.3245ZM1.40916 14.1673L1.25093 14.0925L1.25093 14.0925L1.40916 14.1673ZM5.30187 4.22351L5.37386 4.38302L5.47687 4.33653V4.22351H5.30187ZM9.47151 4.22358H9.29651V4.33659L9.39951 4.38309L9.47151 4.22358ZM12.4779 8.85563L12.3028 8.85631L12.303 8.862L12.4779 8.85563ZM6.35659 3.00517H6.18159V3.18017H6.35659V3.00517ZM6.35663 3.00517H6.53163V2.83017H6.35663V3.00517ZM6.35663 3.88105H6.18163V4.0959L6.39203 4.05244L6.35663 3.88105ZM8.41685 3.88116L8.38143 4.05254L8.59186 4.09603V3.88116H8.41685ZM5.72652 16.3198V16.1448H5.54731L5.55157 16.324L5.72652 16.3198ZM9.04686 16.3198L9.22181 16.324L9.22607 16.1448H9.04686V16.3198ZM2.00833 15.2633L1.86104 15.1688L1.6881 15.4383H2.00833V15.2633ZM12.7651 15.2633V15.4383H13.0852L12.9124 15.1688L12.7651 15.2633ZM12.4887 14.7782L12.3326 14.8574L12.3326 14.8574L12.4887 14.7782ZM11.4236 8.89708L11.5987 8.89694L11.5984 8.8904L11.4236 8.89708ZM2.28469 14.7782L2.44076 14.8574L2.44077 14.8574L2.28469 14.7782ZM14.3094 15.1777C14.2843 15.1614 13.9076 14.9077 13.5224 14.0925L13.206 14.242C13.6183 15.1147 14.0381 15.4189 14.1188 15.4713L14.3094 15.1777ZM14.6669 15.9439C14.7339 15.6283 14.5898 15.3055 14.2876 15.1657L14.1406 15.4833C14.2842 15.5498 14.36 15.7039 14.3245 15.8713L14.6669 15.9439ZM13.9669 16.4948C14.2904 16.4948 14.5963 16.2765 14.6669 15.944L14.3245 15.8713C14.2915 16.0267 14.1414 16.1448 13.9669 16.1448V16.4948ZM10.1016 16.4948H13.9669V16.1448H10.1016V16.4948ZM7.38671 19.175C8.96698 19.175 10.2536 17.899 10.2766 16.3223L9.9266 16.3172C9.9064 17.7036 8.77468 18.825 7.38671 18.825V19.175ZM4.49685 16.3223C4.51983 17.899 5.80644 19.175 7.38671 19.175V18.825C5.99874 18.825 4.86702 17.7036 4.84682 16.3172L4.49685 16.3223ZM0.806512 16.4948H4.67184V16.1448H0.806512V16.4948ZM0.106506 15.944C0.177087 16.2765 0.482992 16.4948 0.806512 16.4948V16.1448C0.632007 16.1448 0.481865 16.0267 0.448877 15.8713L0.106506 15.944ZM0.485794 15.1657C0.183565 15.3056 0.0394633 15.6282 0.106508 15.944L0.448875 15.8713C0.413333 15.7039 0.489099 15.5498 0.632792 15.4833L0.485794 15.1657ZM1.25093 14.0925C0.865826 14.9076 0.489133 15.1614 0.463982 15.1778L0.654604 15.4713C0.735343 15.4189 1.15508 15.1147 1.56739 14.242L1.25093 14.0925ZM2.12013 8.87588C2.12013 10.4319 1.96529 12.5806 1.25093 14.0925L1.56739 14.242C2.31757 12.6543 2.47013 10.4369 2.47013 8.87588H2.12013ZM5.22988 4.064C3.39866 4.89047 2.12013 6.73606 2.12013 8.87588H2.47013C2.47013 6.87879 3.6633 5.15503 5.37386 4.38302L5.22988 4.064ZM5.12687 3.00517V4.22351H5.47687V3.00517H5.12687ZM7.30374 0.825C6.10298 0.825 5.12687 1.80313 5.12687 3.00517H5.47687C5.47687 1.99589 6.29682 1.175 7.30374 1.175V0.825ZM7.46964 0.825H7.30374V1.175H7.46964V0.825ZM9.64651 3.00517C9.64651 1.80313 8.6704 0.825 7.46964 0.825V1.175C8.47655 1.175 9.29651 1.99589 9.29651 3.00517H9.64651ZM9.64651 4.22358V3.00517H9.29651V4.22358H9.64651ZM12.6529 8.85495C12.6446 6.7241 11.3686 4.8879 9.5435 4.06408L9.39951 4.38309C11.1044 5.15262 12.2952 6.86762 12.3029 8.85631L12.6529 8.85495ZM12.6532 8.87588C12.6532 8.86667 12.6531 8.85781 12.6527 8.84925L12.303 8.862C12.3032 8.86694 12.3032 8.87151 12.3032 8.87588H12.6532ZM13.5224 14.0925C12.8081 12.5807 12.6532 10.4319 12.6532 8.87588H12.3032C12.3032 10.4369 12.4558 12.6544 13.206 14.242L13.5224 14.0925ZM6.53159 3.00517C6.53159 2.57839 6.87842 2.23141 7.30377 2.23141V1.88141C6.68457 1.88141 6.18159 2.38564 6.18159 3.00517H6.53159ZM6.35663 2.83017H6.35659V3.18017H6.35663V2.83017ZM6.53163 3.88105V3.00517H6.18163V3.88105H6.53163ZM7.38657 3.60115C7.02181 3.60115 6.66549 3.63856 6.32123 3.70967L6.39203 4.05244C6.7132 3.98609 7.0458 3.95115 7.38657 3.95115V3.60115ZM8.45228 3.70978C8.10787 3.63859 7.75143 3.60115 7.38657 3.60115V3.95115C7.72743 3.95115 8.06012 3.98612 8.38143 4.05254L8.45228 3.70978ZM8.24185 3.00517V3.88116H8.59186V3.00517H8.24185ZM7.46968 2.23141C7.89503 2.23141 8.24185 2.57839 8.24185 3.00517H8.59186C8.59186 2.38564 8.08888 1.88141 7.46968 1.88141V2.23141ZM7.30377 2.23141H7.46968V1.88141H7.30377V2.23141ZM5.55157 16.324C5.57523 17.3173 6.38852 18.1186 7.38671 18.1186V17.7686C6.57977 17.7686 5.92064 17.1202 5.90147 16.3156L5.55157 16.324ZM9.04686 16.1448H5.72652V16.4948H9.04686V16.1448ZM7.38671 18.1186C8.3849 18.1186 9.19819 17.3173 9.22181 16.324L8.87191 16.3156C8.85277 17.1202 8.19365 17.7686 7.38671 17.7686V18.1186ZM9.51014 15.0883H2.00833V15.4383H9.51014V15.0883ZM12.7651 15.0883H9.51014V15.4383H12.7651V15.0883ZM12.3326 14.8574C12.4275 15.0445 12.5233 15.2105 12.6178 15.3578L12.9124 15.1688C12.8244 15.0317 12.7345 14.8759 12.6448 14.6991L12.3326 14.8574ZM11.2486 8.89722C11.2506 11.4224 11.6101 13.4326 12.3326 14.8574L12.6448 14.6991C11.9578 13.3444 11.6006 11.3971 11.5986 8.89694L11.2486 8.89722ZM11.2482 8.87764C11.2482 8.88603 11.2483 8.89475 11.2487 8.90376L11.5984 8.8904C11.5983 8.88647 11.5982 8.88225 11.5982 8.87764H11.2482ZM7.38653 5.00756C9.51537 5.00756 11.2482 6.7427 11.2482 8.87764H11.5982C11.5982 6.55005 9.70931 4.65756 7.38653 4.65756V5.00756ZM3.52486 8.87588C3.52486 6.74275 5.25764 5.00756 7.38653 5.00756V4.65756C5.0638 4.65756 3.17486 6.55 3.17486 8.87588H3.52486ZM2.44077 14.8574C3.16536 13.4286 3.52486 11.4112 3.52486 8.87588H3.17486C3.17486 11.3862 2.81758 13.3405 2.12861 14.6991L2.44077 14.8574ZM2.15561 15.3578C2.25013 15.2105 2.34589 15.0444 2.44076 14.8574L2.12862 14.6991C2.03892 14.8759 1.94899 15.0317 1.86104 15.1688L2.15561 15.3578Z" fill="white"/>
</svg>
