<svg width="15" height="18" viewBox="0 0 15 18" fill="none" xmlns="http://www.w3.org/2000/svg">
<path d="M4.88723 16.3492C5.30907 17.3029 6.26374 17.9703 7.37186 17.9703C8.47999 17.9703 9.43462 17.3029 9.8565 16.3492H4.88723Z" fill="#34A1C7"/>
<path d="M7.37169 1.71689C8.10294 1.71689 8.80508 1.84591 9.45667 2.08213V2.00187C9.45667 0.898031 8.55863 0 7.45483 0H7.28893C6.18509 0 5.28706 0.898031 5.28706 2.00187V2.08111C5.9383 1.8456 6.64023 1.71689 7.37169 1.71689Z" fill="#34A1C7"/>
<path d="M13.952 15.2945H0.791706C0.54273 15.2945 0.314671 15.1266 0.262886 14.883C0.211628 14.6419 0.321526 14.4039 0.544487 14.3009C0.597398 14.2666 0.995648 13.9881 1.39435 13.1456C2.12662 11.5984 2.28033 9.41885 2.28033 7.8629C2.28033 5.0555 4.56432 2.77158 7.37169 2.77158C10.1724 2.77158 12.4522 5.0445 12.463 7.84269C12.4633 7.8494 12.4634 7.85615 12.4634 7.8629C12.4634 9.41885 12.6171 11.5984 13.3494 13.1456C13.7481 13.9881 14.1463 14.2666 14.1992 14.3009C14.4222 14.4039 14.5321 14.6419 14.4808 14.883C14.4291 15.1266 14.201 15.2945 13.952 15.2945Z" fill="#34A1C7"/>
</svg>
