<svg width="24" height="24" viewBox="0 0 24 24" fill="none" xmlns="http://www.w3.org/2000/svg">
<circle cx="12" cy="12" r="12" fill="#EDEEEE"/>
<path fill-rule="evenodd" clip-rule="evenodd" d="M14.9682 14.2629L17.8531 17.1478C18.049 17.3412 18.049 17.6596 17.8531 17.8531C17.6571 18.049 17.3412 18.049 17.1453 17.8531L14.2604 14.9706C13.3886 15.6857 12.2743 16.1143 11.0571 16.1143C8.26286 16.1143 6 13.849 6 11.0571C6 8.26531 8.26286 6 11.0571 6C13.849 6 16.1143 8.26531 16.1143 11.0571C16.1143 12.2743 15.6833 13.391 14.9682 14.2629ZM7.00408 11.0571C7.00408 13.2906 8.82122 15.1078 11.0571 15.1078C13.2906 15.1078 15.1102 13.2906 15.1102 11.0571C15.1102 8.82367 13.2906 7.00408 11.0571 7.00408C8.82122 7.00408 7.00408 8.82367 7.00408 11.0571Z" fill="#848E8C"/>
<path d="M17.8531 17.1478L17.747 17.2538L17.7477 17.2545L17.8531 17.1478ZM14.9682 14.2629L14.8522 14.1677L14.766 14.2728L14.8621 14.3689L14.9682 14.2629ZM17.8531 17.8531L17.7477 17.7463L17.747 17.747L17.8531 17.8531ZM17.1453 17.8531L17.2514 17.747L17.2513 17.747L17.1453 17.8531ZM14.2604 14.9706L14.3664 14.8645L14.2703 14.7685L14.1653 14.8546L14.2604 14.9706ZM17.9591 17.0417L15.0742 14.1568L14.8621 14.3689L17.747 17.2538L17.9591 17.0417ZM17.9585 17.9598C18.2138 17.7076 18.2138 17.2932 17.9585 17.041L17.7477 17.2545C17.8841 17.3892 17.8841 17.6116 17.7477 17.7463L17.9585 17.9598ZM17.0392 17.9591C17.2937 18.2136 17.7046 18.2136 17.9591 17.9591L17.747 17.747C17.6097 17.8843 17.3887 17.8843 17.2514 17.747L17.0392 17.9591ZM14.1544 15.0767L17.0393 17.9592L17.2513 17.747L14.3664 14.8645L14.1544 15.0767ZM11.0571 16.2643C12.3102 16.2643 13.4578 15.8229 14.3555 15.0866L14.1653 14.8546C13.3193 15.5485 12.2384 15.9643 11.0571 15.9643V16.2643ZM5.85 11.0571C5.85 13.9318 8.17997 16.2643 11.0571 16.2643V15.9643C8.34575 15.9643 6.15 13.7662 6.15 11.0571H5.85ZM11.0571 5.85C8.17997 5.85 5.85 8.18251 5.85 11.0571H6.15C6.15 8.3481 8.34575 6.15 11.0571 6.15V5.85ZM16.2643 11.0571C16.2643 8.18246 13.9318 5.85 11.0571 5.85V6.15C13.7661 6.15 15.9643 8.34815 15.9643 11.0571H16.2643ZM15.0841 14.358C15.8204 13.4604 16.2643 12.3103 16.2643 11.0571H15.9643C15.9643 12.2383 15.5462 13.3217 14.8522 14.1677L15.0841 14.358ZM11.0571 14.9578C8.90401 14.9578 7.15408 13.2077 7.15408 11.0571H6.85408C6.85408 13.3735 8.73844 15.2578 11.0571 15.2578V14.9578ZM14.9602 11.0571C14.9602 13.2077 13.2079 14.9578 11.0571 14.9578V15.2578C13.3733 15.2578 15.2602 13.3736 15.2602 11.0571H14.9602ZM11.0571 7.15408C13.2078 7.15408 14.9602 8.90652 14.9602 11.0571H15.2602C15.2602 8.74083 13.3735 6.85408 11.0571 6.85408V7.15408ZM7.15408 11.0571C7.15408 8.90646 8.90413 7.15408 11.0571 7.15408V6.85408C8.73832 6.85408 6.85408 8.74089 6.85408 11.0571H7.15408Z" fill="#848E8C"/>
</svg>
