<svg width="15" height="15" viewBox="0 0 15 15" fill="none" xmlns="http://www.w3.org/2000/svg">
<path fill-rule="evenodd" clip-rule="evenodd" d="M13.6229 5.20343C13.861 5.23588 14.0796 5.35015 14.2396 5.52584C14.6119 5.93466 14.575 6.56142 14.1572 6.9257L11.3545 9.37142L11.9304 13.2107C11.9678 13.4564 11.9094 13.7068 11.7669 13.9123C11.4532 14.3644 10.8244 14.4822 10.3623 14.1753L7.49857 12.2676L4.63486 14.1734C4.30463 14.3974 3.8692 14.4053 3.53068 14.1934C3.18733 13.9868 3.00442 13.5985 3.0668 13.2088L3.64268 9.37096L0.839955 6.92524C0.660415 6.76869 0.543641 6.55477 0.510486 6.3217C0.43334 5.77935 0.820097 5.27844 1.37433 5.20294L5.09429 4.70009L6.56636 1.25797C6.66882 1.01779 6.86397 0.826847 7.10941 0.726562C7.62424 0.51622 8.21588 0.754134 8.43083 1.25797L9.9029 4.70009L13.6229 5.20294V5.20343ZM10.3263 9.25503C10.3017 9.09227 10.3624 8.92832 10.4877 8.8187L13.4914 6.19542L9.48349 5.63094C9.30826 5.60729 9.15882 5.49474 9.09061 5.33501L7.50855 1.6356C7.5077 1.63294 7.50636 1.63044 7.50454 1.62826L5.90599 5.33696C5.83778 5.49669 5.68838 5.60924 5.51311 5.63289L1.51023 6.1734L4.50939 8.81872C4.63413 8.92792 4.69476 9.09097 4.67086 9.25308L4.05553 13.3511L7.21915 11.2713C7.3887 11.1585 7.61144 11.1585 7.781 11.2713L10.9261 13.3639L10.3263 9.25503Z" fill="#FF8E25"/>
</svg>
