<svg width="10" height="10" viewBox="0 0 10 10" fill="none" xmlns="http://www.w3.org/2000/svg">
<path d="M9.99063 3.31507L9.425 0.986643C9.35563 0.700571 9.10563 0.5 8.81875 0.5H1.18187C0.895 0.5 0.645 0.700571 0.575 0.986643L0.009375 3.31507C0.003125 3.34014 0 3.3665 0 3.39286C0 4.27871 0.665625 5 1.48438 5C1.96 5 2.38438 4.75636 2.65625 4.37836C2.92812 4.75636 3.3525 5 3.82812 5C4.30375 5 4.72813 4.75636 5 4.37836C5.27187 4.75636 5.69562 5 6.17188 5C6.64813 5 7.07188 4.75636 7.34375 4.37836C7.61562 4.75636 8.03938 5 8.51562 5C9.33438 5 10 4.27871 10 3.39286C10 3.3665 9.99688 3.34014 9.99063 3.31507Z" fill="#34A1C7"/>
<path d="M8.51562 5.64362C8.09 5.64362 7.68563 5.50991 7.34375 5.26562C6.66 5.75484 5.68375 5.75484 5 5.26562C4.31625 5.75484 3.34 5.75484 2.65625 5.26562C2.31438 5.50991 1.91 5.64362 1.48438 5.64362C1.1775 5.64362 0.888125 5.5697 0.625 5.4437V8.85791C0.625 9.21277 0.905 9.50077 1.25 9.50077H3.75V6.92934H6.25V9.50077H8.75C9.095 9.50077 9.375 9.21277 9.375 8.85791V5.4437C9.11187 5.5697 8.8225 5.64362 8.51562 5.64362Z" fill="#05161C"/>
</svg>
