<svg width="32" height="32" viewBox="0 0 32 32" fill="none" xmlns="http://www.w3.org/2000/svg">
<circle cx="16" cy="16" r="16" fill="#E0F1F6"/>
<path d="M21.4568 18.0095C20.8786 17.4386 20.1567 17.4386 19.5821 18.0095C19.1438 18.4441 18.7055 18.8787 18.2746 19.3207C18.1567 19.4422 18.0573 19.468 17.9136 19.387C17.63 19.2323 17.328 19.107 17.0554 18.9376C15.7847 18.1384 14.7203 17.1108 13.7774 15.9543C13.3097 15.3797 12.8935 14.7646 12.6025 14.0722C12.5436 13.9322 12.5546 13.8401 12.6688 13.7259C13.1071 13.3024 13.5343 12.8678 13.9653 12.4331C14.5656 11.8291 14.5656 11.1219 13.9616 10.5142C13.619 10.168 13.2765 9.82915 12.934 9.48294C12.5804 9.12935 12.2305 8.77208 11.8732 8.42218C11.295 7.85866 10.5731 7.85866 9.9985 8.42587C9.55652 8.86048 9.13295 9.30614 8.68361 9.73339C8.26741 10.1275 8.05747 10.61 8.01327 11.1735C7.94329 12.0906 8.16796 12.9562 8.48471 13.7996C9.13295 15.5454 10.12 17.096 11.3171 18.5177C12.934 20.4403 14.864 21.9615 17.1217 23.0591C18.1383 23.5526 19.1917 23.932 20.3371 23.9946C21.1253 24.0388 21.8104 23.8399 22.3592 23.2248C22.7349 22.8049 23.1584 22.4219 23.5562 22.0204C24.1455 21.4238 24.1492 20.7019 23.5636 20.1125C22.8638 19.4091 22.1603 18.7093 21.4568 18.0095Z" fill="#34A1C7"/>
</svg>
